M48
;Layer_Color=9474304
;FILE_FORMAT=2:5
INCH,LZ
;TYPE=PLATED
T1F00S00C0.01181
T3F00S00C0.04724
T4F00S00C0.05906
T5F00S00C0.07874
%
T01
X0040794Y0028214
X0044488Y0045669
X0074705Y0019882
X007441Y0080709
X0068898
X0070866Y0108661
X0069685Y0113189
X0075295Y0106496
X0058366Y0125394
X0058465Y0130315
X005876Y0135473
X0070472Y0138189
X0087402Y0135827
X0047513Y014251
X0016634Y009685
X0015021Y0088817
X0016732Y0076968
X0018602Y0070571
T03
X0104331Y0081004
X0009646Y007691
Y008691
Y0096909
Y0106909
Y0116909
Y0126909
X0030709Y0152756
X0040551Y0147835
Y0175394
X0030709Y0170472
T04
X0084252Y0061319
Y0100689
X0123622Y0100787
Y0061319
T05
X0008268Y0008268
X0121653Y0007087
X0122146Y0146752
X000748Y0141732
M30
