G04*
G04 #@! TF.GenerationSoftware,Altium Limited,Altium Designer,21.6.4 (81)*
G04*
G04 Layer_Color=16711935*
%FSLAX25Y25*%
%MOIN*%
G70*
G04*
G04 #@! TF.SameCoordinates,35DD912C-F110-465F-AF13-46C66D0AF481*
G04*
G04*
G04 #@! TF.FilePolarity,Negative*
G04*
G01*
G75*
G04:AMPARAMS|DCode=30|XSize=86.61mil|YSize=55.12mil|CornerRadius=15.75mil|HoleSize=0mil|Usage=FLASHONLY|Rotation=0.000|XOffset=0mil|YOffset=0mil|HoleType=Round|Shape=RoundedRectangle|*
%AMROUNDEDRECTD30*
21,1,0.08661,0.02362,0,0,0.0*
21,1,0.05512,0.05512,0,0,0.0*
1,1,0.03150,0.02756,-0.01181*
1,1,0.03150,-0.02756,-0.01181*
1,1,0.03150,-0.02756,0.01181*
1,1,0.03150,0.02756,0.01181*
%
%ADD30ROUNDEDRECTD30*%
%ADD31R,0.07087X0.08661*%
%ADD32R,0.08661X0.07087*%
%ADD33O,0.08661X0.07087*%
%ADD34C,0.04724*%
%ADD35C,0.03150*%
D30*
X12205Y31102D02*
D03*
Y57087D02*
D03*
D31*
X30709Y170472D02*
D03*
X40551Y175394D02*
D03*
X30709Y152756D02*
D03*
X40551Y147835D02*
D03*
D32*
X9646Y126909D02*
D03*
X104331Y81004D02*
D03*
X84252Y100689D02*
D03*
X123622Y100787D02*
D03*
Y61319D02*
D03*
X84252D02*
D03*
D33*
X9646Y116909D02*
D03*
Y106909D02*
D03*
Y96909D02*
D03*
Y86910D02*
D03*
Y76910D02*
D03*
D34*
X121653Y7087D02*
D03*
X8268Y8268D02*
D03*
X122146Y146752D02*
D03*
X7480Y141732D02*
D03*
D35*
X75295Y106496D02*
D03*
X69685Y113189D02*
D03*
X58760Y135473D02*
D03*
X47513Y142510D02*
D03*
X15021Y88817D02*
D03*
X58366Y125394D02*
D03*
X16732Y76968D02*
D03*
X58465Y130315D02*
D03*
X16634Y96850D02*
D03*
X18602Y70571D02*
D03*
X74705Y19882D02*
D03*
X70866Y108661D02*
D03*
X74410Y80709D02*
D03*
X68898D02*
D03*
X70472Y138189D02*
D03*
X87402Y135827D02*
D03*
X44488Y45669D02*
D03*
X40794Y28214D02*
D03*
M02*
