G04*
G04 #@! TF.GenerationSoftware,Altium Limited,Altium Designer,21.6.4 (81)*
G04*
G04 Layer_Color=65535*
%FSLAX25Y25*%
%MOIN*%
G70*
G04*
G04 #@! TF.SameCoordinates,35DD912C-F110-465F-AF13-46C66D0AF481*
G04*
G04*
G04 #@! TF.FilePolarity,Positive*
G04*
G01*
G75*
%ADD10C,0.01181*%
%ADD11C,0.00500*%
%ADD12C,0.00787*%
%ADD13C,0.00394*%
D10*
X29679Y135630D02*
X28982D01*
X29679D01*
X56549Y60453D02*
X55852D01*
X56549D01*
D11*
X74065Y150295D02*
D03*
X81643Y118405D02*
D03*
D12*
X3691Y28346D02*
Y59449D01*
X16683D02*
X17864D01*
X1329D02*
X7628D01*
X1329Y28346D02*
Y59449D01*
Y28346D02*
X7628D01*
X16683D02*
X17864D01*
X23770Y50787D02*
Y52362D01*
Y35827D02*
Y37402D01*
X6447Y28346D02*
Y59449D01*
X-2215Y22441D02*
Y65748D01*
X-6545Y22441D02*
X-2215D01*
X-6545Y65748D02*
X-2215D01*
Y58268D02*
X-246D01*
X-2215Y30315D02*
X-246D01*
X-6545Y44094D02*
X-2215D01*
X-3789Y45669D02*
X-2215Y44094D01*
X-3789Y42520D02*
X-2215Y44094D01*
X64567Y66929D02*
Y68504D01*
X24016Y66929D02*
X64567D01*
X24016D02*
Y68504D01*
Y138189D02*
Y139370D01*
X64567Y138189D02*
Y139370D01*
X24016D02*
X64567D01*
X70965Y139795D02*
X86465D01*
X70965Y153295D02*
X86465D01*
X70965Y152295D02*
Y153295D01*
X86465Y152295D02*
Y153295D01*
Y139795D02*
Y140795D01*
X70965Y139795D02*
Y140795D01*
X78543Y107905D02*
X94043D01*
X78543Y121405D02*
X94043D01*
X78543Y120405D02*
Y121405D01*
X94043Y120405D02*
Y121405D01*
Y107905D02*
Y108905D01*
X78543Y107905D02*
Y108905D01*
X51673Y22411D02*
X75098D01*
X75098Y22411D02*
Y23435D01*
X51673Y22411D02*
Y23435D01*
Y62579D02*
Y63760D01*
X75098Y62579D02*
Y63760D01*
X51673D02*
X75098D01*
X100295Y38976D02*
Y57087D01*
X78347D02*
X100295D01*
X78347Y38976D02*
X100295D01*
X78347D02*
Y57087D01*
X97933Y40354D02*
Y42323D01*
Y41339D02*
X98917D01*
X96949D02*
X97933D01*
X42126Y50000D02*
Y59449D01*
X35827D02*
X42126D01*
X35827Y50000D02*
Y59449D01*
Y50000D02*
X42126D01*
X26378Y140551D02*
X35827D01*
Y146850D01*
X26378D02*
X35827D01*
X26378Y140551D02*
Y146850D01*
X34252Y29921D02*
Y39370D01*
Y29921D02*
X40551D01*
Y39370D01*
X34252D02*
X40551D01*
X27165Y29921D02*
Y39370D01*
Y29921D02*
X33465D01*
Y39370D01*
X27165D02*
X33465D01*
X56299Y142520D02*
X65748D01*
Y148819D01*
X56299D02*
X65748D01*
X56299Y142520D02*
Y148819D01*
X56299Y156693D02*
X65748D01*
Y162992D01*
X56299D02*
X65748D01*
X56299Y156693D02*
Y162992D01*
Y149606D02*
X65748D01*
Y155905D01*
X56299D02*
X65748D01*
X56299Y149606D02*
Y155905D01*
X85728Y28346D02*
Y37795D01*
Y28346D02*
X92028D01*
Y37795D01*
X85728D02*
X92028D01*
X28740Y50000D02*
Y59449D01*
Y50000D02*
X35039D01*
Y59449D01*
X28740D02*
X35039D01*
X41339Y29921D02*
Y39370D01*
Y29921D02*
X47638D01*
Y39370D01*
X41339D02*
X47638D01*
X24409Y20866D02*
X33858D01*
Y27165D01*
X24409D02*
X33858D01*
X24409Y20866D02*
Y27165D01*
X78642Y28346D02*
Y37795D01*
Y28346D02*
X84941D01*
Y37795D01*
X78642D02*
X84941D01*
D13*
X66470Y20689D02*
Y19049D01*
X66798Y18721D01*
X67454D01*
X67782Y19049D01*
Y20689D01*
X69422Y18721D02*
Y20689D01*
X68438Y19705D01*
X69750D01*
X88714Y125295D02*
Y123655D01*
X89042Y123327D01*
X89698D01*
X90026Y123655D01*
Y125295D01*
X90682Y124967D02*
X91010Y125295D01*
X91666D01*
X91994Y124967D01*
Y124639D01*
X91666Y124311D01*
X91338D01*
X91666D01*
X91994Y123983D01*
Y123655D01*
X91666Y123327D01*
X91010D01*
X90682Y123655D01*
X71588Y156889D02*
Y155250D01*
X71916Y154922D01*
X72572D01*
X72900Y155250D01*
Y156889D01*
X74868Y154922D02*
X73556D01*
X74868Y156234D01*
Y156562D01*
X74540Y156889D01*
X73884D01*
X73556Y156562D01*
X20046Y141535D02*
Y139895D01*
X20374Y139567D01*
X21030D01*
X21358Y139895D01*
Y141535D01*
X22014Y139567D02*
X22670D01*
X22342D01*
Y141535D01*
X22014Y141207D01*
X28577Y41044D02*
Y43012D01*
X29561D01*
X29889Y42684D01*
Y42028D01*
X29561Y41700D01*
X28577D01*
X29233D02*
X29889Y41044D01*
X30544Y42684D02*
X30872Y43012D01*
X31528D01*
X31856Y42684D01*
Y42355D01*
X31528Y42028D01*
X31201D01*
X31528D01*
X31856Y41700D01*
Y41372D01*
X31528Y41044D01*
X30872D01*
X30544Y41372D01*
X35762Y41044D02*
Y43012D01*
X36746D01*
X37074Y42684D01*
Y42028D01*
X36746Y41700D01*
X35762D01*
X36418D02*
X37074Y41044D01*
X39042D02*
X37730D01*
X39042Y42355D01*
Y42684D01*
X38713Y43012D01*
X38058D01*
X37730Y42684D01*
X22409Y144095D02*
Y146063D01*
X23392D01*
X23720Y145735D01*
Y145079D01*
X23392Y144751D01*
X22409D01*
X23065D02*
X23720Y144095D01*
X24376D02*
X25032D01*
X24704D01*
Y146063D01*
X24376Y145735D01*
X10892Y63484D02*
X10237D01*
X10565D01*
Y61844D01*
X10237Y61516D01*
X9909D01*
X9581Y61844D01*
X12860Y61516D02*
X11548D01*
X12860Y62828D01*
Y63156D01*
X12532Y63484D01*
X11876D01*
X11548Y63156D01*
X37993Y63189D02*
X36680D01*
Y62205D01*
X37337D01*
X36680D01*
Y61221D01*
X38648Y63189D02*
Y61221D01*
X39632D01*
X39960Y61549D01*
Y61877D01*
X39632Y62205D01*
X38648D01*
X39632D01*
X39960Y62533D01*
Y62861D01*
X39632Y63189D01*
X38648D01*
X40616Y61221D02*
X41272D01*
X40944D01*
Y63189D01*
X40616Y62861D01*
X80873Y26443D02*
X80545Y26771D01*
X79889D01*
X79561Y26443D01*
Y25131D01*
X79889Y24803D01*
X80545D01*
X80873Y25131D01*
X81529D02*
X81857Y24803D01*
X82513D01*
X82841Y25131D01*
Y26443D01*
X82513Y26771D01*
X81857D01*
X81529Y26443D01*
Y26115D01*
X81857Y25787D01*
X82841D01*
X28511Y19357D02*
X28183Y19685D01*
X27527D01*
X27199Y19357D01*
Y18045D01*
X27527Y17717D01*
X28183D01*
X28511Y18045D01*
X29167Y19357D02*
X29495Y19685D01*
X30150D01*
X30479Y19357D01*
Y19029D01*
X30150Y18701D01*
X30479Y18373D01*
Y18045D01*
X30150Y17717D01*
X29495D01*
X29167Y18045D01*
Y18373D01*
X29495Y18701D01*
X29167Y19029D01*
Y19357D01*
X29495Y18701D02*
X30150D01*
X44062Y42684D02*
X43734Y43012D01*
X43078D01*
X42750Y42684D01*
Y41372D01*
X43078Y41044D01*
X43734D01*
X44062Y41372D01*
X44718Y43012D02*
X46030D01*
Y42684D01*
X44718Y41372D01*
Y41044D01*
X30050Y63904D02*
X29722Y64232D01*
X29066D01*
X28738Y63904D01*
Y62592D01*
X29066Y62264D01*
X29722D01*
X30050Y62592D01*
X32018Y64232D02*
X31362Y63904D01*
X30706Y63248D01*
Y62592D01*
X31034Y62264D01*
X31690D01*
X32018Y62592D01*
Y62920D01*
X31690Y63248D01*
X30706D01*
X88550Y26640D02*
X88222Y26968D01*
X87566D01*
X87238Y26640D01*
Y25328D01*
X87566Y25000D01*
X88222D01*
X88550Y25328D01*
X90518Y26968D02*
X89206D01*
Y25984D01*
X89862Y26312D01*
X90190D01*
X90518Y25984D01*
Y25328D01*
X90190Y25000D01*
X89534D01*
X89206Y25328D01*
X52822Y153215D02*
X52494Y153543D01*
X51838D01*
X51510Y153215D01*
Y151903D01*
X51838Y151575D01*
X52494D01*
X52822Y151903D01*
X54461Y151575D02*
Y153543D01*
X53478Y152559D01*
X54790D01*
X52920Y160695D02*
X52592Y161023D01*
X51936D01*
X51608Y160695D01*
Y159383D01*
X51936Y159055D01*
X52592D01*
X52920Y159383D01*
X53576Y160695D02*
X53904Y161023D01*
X54560D01*
X54888Y160695D01*
Y160367D01*
X54560Y160039D01*
X54232D01*
X54560D01*
X54888Y159711D01*
Y159383D01*
X54560Y159055D01*
X53904D01*
X53576Y159383D01*
X53018Y146128D02*
X52691Y146456D01*
X52035D01*
X51707Y146128D01*
Y144817D01*
X52035Y144489D01*
X52691D01*
X53018Y144817D01*
X54986Y144489D02*
X53674D01*
X54986Y145800D01*
Y146128D01*
X54658Y146456D01*
X54002D01*
X53674Y146128D01*
X95965Y37369D02*
X95637Y37696D01*
X94981D01*
X94653Y37369D01*
Y36057D01*
X94981Y35729D01*
X95637D01*
X95965Y36057D01*
X96621Y35729D02*
X97277D01*
X96948D01*
Y37696D01*
X96621Y37369D01*
M02*
