G04*
G04 #@! TF.GenerationSoftware,Altium Limited,Altium Designer,21.6.4 (81)*
G04*
G04 Layer_Physical_Order=2*
G04 Layer_Color=16711680*
%FSLAX25Y25*%
%MOIN*%
G70*
G04*
G04 #@! TF.SameCoordinates,35DD912C-F110-465F-AF13-46C66D0AF481*
G04*
G04*
G04 #@! TF.FilePolarity,Positive*
G04*
G01*
G75*
%ADD10C,0.01181*%
%ADD36C,0.01575*%
G04:AMPARAMS|DCode=37|XSize=78.74mil|YSize=47.24mil|CornerRadius=11.81mil|HoleSize=0mil|Usage=FLASHONLY|Rotation=0.000|XOffset=0mil|YOffset=0mil|HoleType=Round|Shape=RoundedRectangle|*
%AMROUNDEDRECTD37*
21,1,0.07874,0.02362,0,0,0.0*
21,1,0.05512,0.04724,0,0,0.0*
1,1,0.02362,0.02756,-0.01181*
1,1,0.02362,-0.02756,-0.01181*
1,1,0.02362,-0.02756,0.01181*
1,1,0.02362,0.02756,0.01181*
%
%ADD37ROUNDEDRECTD37*%
%ADD38R,0.06299X0.07874*%
%ADD39R,0.07874X0.06299*%
%ADD40O,0.07874X0.06299*%
%ADD41C,0.03937*%
%ADD42C,0.02362*%
G36*
X127165Y183898D02*
Y148204D01*
X126665Y148138D01*
X126548Y148575D01*
X125926Y149653D01*
X125047Y150532D01*
X123969Y151154D01*
X122768Y151476D01*
X121524D01*
X120322Y151154D01*
X119245Y150532D01*
X118365Y149653D01*
X117743Y148575D01*
X117421Y147374D01*
Y146130D01*
X117743Y144928D01*
X118365Y143851D01*
X119245Y142972D01*
X120322Y142350D01*
X121524Y142028D01*
X122768D01*
X123969Y142350D01*
X125047Y142972D01*
X125926Y143851D01*
X126548Y144928D01*
X126665Y145366D01*
X127165Y145300D01*
Y1181D01*
X1181D01*
Y183858D01*
X126811Y184251D01*
X127165Y183898D01*
D02*
G37*
%LPC*%
G36*
X34646Y175197D02*
X26772D01*
Y165748D01*
X34646D01*
Y175197D01*
D02*
G37*
G36*
Y157480D02*
X26772D01*
Y148031D01*
X34646D01*
Y157480D01*
D02*
G37*
G36*
X8102Y146457D02*
X6858D01*
X5657Y146135D01*
X4579Y145513D01*
X3700Y144633D01*
X3078Y143556D01*
X2756Y142354D01*
Y141110D01*
X3078Y139909D01*
X3700Y138831D01*
X4579Y137952D01*
X5657Y137330D01*
X6858Y137008D01*
X8102D01*
X9304Y137330D01*
X10381Y137952D01*
X11261Y138831D01*
X11883Y139909D01*
X12205Y141110D01*
Y142354D01*
X11883Y143556D01*
X11261Y144633D01*
X10381Y145513D01*
X9304Y146135D01*
X8102Y146457D01*
D02*
G37*
G36*
X70864Y140157D02*
X70081D01*
X69357Y139858D01*
X68804Y139304D01*
X68504Y138581D01*
Y137797D01*
X68804Y137074D01*
X69357Y136520D01*
X70081Y136221D01*
X70454D01*
X71841Y134833D01*
X72297Y134529D01*
X72835Y134422D01*
X86023D01*
X86286Y134158D01*
X87010Y133858D01*
X87793D01*
X88517Y134158D01*
X89070Y134712D01*
X89370Y135435D01*
Y136218D01*
X89070Y136942D01*
X88517Y137496D01*
X87793Y137795D01*
X87010D01*
X86286Y137496D01*
X86023Y137232D01*
X73417D01*
X72441Y138207D01*
Y138581D01*
X72141Y139304D01*
X71588Y139858D01*
X70864Y140157D01*
D02*
G37*
G36*
X59151Y137441D02*
X58368D01*
X57645Y137141D01*
X57381Y136877D01*
X55256D01*
X54718Y136770D01*
X54263Y136466D01*
X16615Y98819D01*
X16242D01*
X15519Y98519D01*
X14965Y97966D01*
X14817Y97607D01*
X14303Y97675D01*
X14269Y97937D01*
X13872Y98895D01*
X13241Y99717D01*
X12419Y100348D01*
X11461Y100745D01*
X10433Y100880D01*
X8858D01*
X7830Y100745D01*
X6873Y100348D01*
X6050Y99717D01*
X5419Y98895D01*
X5023Y97937D01*
X4887Y96909D01*
X5023Y95882D01*
X5419Y94924D01*
X6050Y94102D01*
X6873Y93471D01*
X7830Y93074D01*
X8858Y92939D01*
X10433D01*
X11461Y93074D01*
X12419Y93471D01*
X13241Y94102D01*
X13872Y94924D01*
X14269Y95882D01*
X14291Y96055D01*
X14805Y96122D01*
X14965Y95735D01*
X15519Y95182D01*
X16242Y94882D01*
X16597D01*
X16804Y94382D01*
X15636Y93213D01*
X15331Y92758D01*
X15225Y92220D01*
Y91327D01*
X14683Y90786D01*
X14630D01*
X13906Y90486D01*
X13513Y90093D01*
X13352Y89933D01*
X12847Y90020D01*
X12419Y90348D01*
X11461Y90745D01*
X10433Y90880D01*
X8858D01*
X7830Y90745D01*
X6873Y90348D01*
X6050Y89717D01*
X5419Y88895D01*
X5023Y87937D01*
X4887Y86910D01*
X5023Y85882D01*
X5419Y84924D01*
X6050Y84101D01*
X6873Y83470D01*
X7830Y83074D01*
X8858Y82938D01*
X10433D01*
X11461Y83074D01*
X12419Y83470D01*
X13241Y84101D01*
X13872Y84924D01*
X14269Y85882D01*
X14341Y86427D01*
X14630Y86849D01*
X14827Y86849D01*
X15327Y86755D01*
Y78347D01*
X15064Y78084D01*
X14829Y77516D01*
X14315Y77584D01*
X14269Y77937D01*
X13872Y78895D01*
X13241Y79717D01*
X12419Y80348D01*
X11461Y80745D01*
X10433Y80880D01*
X8858D01*
X7830Y80745D01*
X6873Y80348D01*
X6050Y79717D01*
X5419Y78895D01*
X5023Y77937D01*
X4887Y76910D01*
X5023Y75882D01*
X5419Y74924D01*
X6050Y74102D01*
X6873Y73470D01*
X7830Y73074D01*
X8858Y72939D01*
X10433D01*
X11461Y73074D01*
X12419Y73470D01*
X13241Y74102D01*
X13872Y74924D01*
X14269Y75882D01*
X14327Y76325D01*
X14840Y76392D01*
X15064Y75853D01*
X15617Y75300D01*
X16341Y75000D01*
X17124D01*
X17847Y75300D01*
X18401Y75853D01*
X18701Y76577D01*
Y77360D01*
X18401Y78084D01*
X18137Y78347D01*
Y86327D01*
X55799Y123989D01*
X56987D01*
X57251Y123725D01*
X57975Y123425D01*
X58758D01*
X59481Y123725D01*
X60035Y124279D01*
X60335Y125002D01*
Y125785D01*
X60035Y126509D01*
X59481Y127062D01*
X58758Y127362D01*
X57975D01*
X57251Y127062D01*
X56987Y126799D01*
X55216D01*
X54679Y126692D01*
X54223Y126387D01*
X18518Y90682D01*
X18452Y90691D01*
X18034Y90906D01*
Y91638D01*
X55306Y128910D01*
X57086D01*
X57349Y128646D01*
X58073Y128347D01*
X58856D01*
X59580Y128646D01*
X60133Y129200D01*
X60433Y129923D01*
Y130707D01*
X60133Y131430D01*
X59580Y131984D01*
X58856Y132283D01*
X58073D01*
X57349Y131984D01*
X57086Y131720D01*
X54724D01*
X54187Y131613D01*
X53896Y131419D01*
X53578Y131807D01*
X55838Y134067D01*
X57381D01*
X57645Y133804D01*
X58368Y133504D01*
X59151D01*
X59875Y133804D01*
X60429Y134357D01*
X60728Y135081D01*
Y135864D01*
X60429Y136588D01*
X59875Y137141D01*
X59151Y137441D01*
D02*
G37*
G36*
X14370Y130847D02*
X4921D01*
Y122973D01*
X14370D01*
Y130847D01*
D02*
G37*
G36*
X47905Y144478D02*
X47122D01*
X46398Y144178D01*
X45845Y143625D01*
X45545Y142901D01*
Y142812D01*
X21248Y118515D01*
X14029D01*
X13872Y118895D01*
X13241Y119717D01*
X12419Y120348D01*
X11461Y120745D01*
X10433Y120880D01*
X8858D01*
X7830Y120745D01*
X6873Y120348D01*
X6050Y119717D01*
X5419Y118895D01*
X5023Y117937D01*
X4887Y116909D01*
X5023Y115882D01*
X5419Y114924D01*
X6050Y114102D01*
X6873Y113470D01*
X7830Y113074D01*
X8858Y112938D01*
X10433D01*
X11461Y113074D01*
X12419Y113470D01*
X13241Y114102D01*
X13872Y114924D01*
X14029Y115304D01*
X21913D01*
X21913Y115304D01*
X22528Y115426D01*
X23049Y115774D01*
X47816Y140541D01*
X47905D01*
X48629Y140841D01*
X49182Y141395D01*
X49482Y142118D01*
Y142901D01*
X49182Y143625D01*
X48629Y144178D01*
X47905Y144478D01*
D02*
G37*
G36*
X70077Y115157D02*
X69293D01*
X68570Y114858D01*
X68306Y114594D01*
X61221D01*
X60683Y114487D01*
X60227Y114182D01*
X18584Y72539D01*
X18211D01*
X17487Y72240D01*
X16933Y71686D01*
X16634Y70962D01*
Y70179D01*
X16933Y69456D01*
X17487Y68902D01*
X18211Y68602D01*
X18994D01*
X19717Y68902D01*
X20271Y69456D01*
X20571Y70179D01*
Y70552D01*
X61802Y111784D01*
X68306D01*
X68570Y111520D01*
X69293Y111221D01*
X70077D01*
X70800Y111520D01*
X71354Y112074D01*
X71653Y112797D01*
Y113581D01*
X71354Y114304D01*
X70800Y114858D01*
X70077Y115157D01*
D02*
G37*
G36*
X71258Y110630D02*
X70475D01*
X69751Y110330D01*
X69197Y109776D01*
X68898Y109053D01*
Y108270D01*
X69197Y107546D01*
X69751Y106993D01*
X70475Y106693D01*
X70741D01*
Y82972D01*
X70848Y82435D01*
X71152Y81979D01*
X72441Y80690D01*
Y80317D01*
X72741Y79594D01*
X73294Y79040D01*
X74018Y78740D01*
X74801D01*
X75524Y79040D01*
X76078Y79594D01*
X76378Y80317D01*
Y81100D01*
X76078Y81824D01*
X75524Y82377D01*
X74801Y82677D01*
X74428D01*
X73551Y83554D01*
Y105373D01*
X74051Y105524D01*
X74160Y105361D01*
X74311Y105210D01*
X74311Y105210D01*
X74831Y104862D01*
X75446Y104740D01*
X75446Y104740D01*
X77143D01*
X82329Y99554D01*
X82329Y99554D01*
X82850Y99205D01*
X83465Y99083D01*
X83465Y99083D01*
X84252D01*
X84866Y99206D01*
X85387Y99554D01*
X85735Y100075D01*
X85858Y100689D01*
X85735Y101303D01*
X85387Y101824D01*
X84866Y102172D01*
X84252Y102295D01*
X84130D01*
X78944Y107481D01*
X78423Y107829D01*
X77808Y107951D01*
X77808Y107951D01*
X75952D01*
X75910Y107980D01*
X75295Y108102D01*
X74681Y107980D01*
X74160Y107631D01*
X74035Y107444D01*
X73514Y107564D01*
X73444Y107917D01*
X73139Y108372D01*
X72835Y108677D01*
Y109053D01*
X72535Y109776D01*
X71981Y110330D01*
X71258Y110630D01*
D02*
G37*
G36*
X109055Y84941D02*
X99606D01*
Y77067D01*
X109055D01*
Y84941D01*
D02*
G37*
G36*
X69289Y82677D02*
X68506D01*
X67783Y82377D01*
X67229Y81824D01*
X66929Y81100D01*
Y80317D01*
X67229Y79594D01*
X67493Y79330D01*
Y70661D01*
X44470Y47638D01*
X44097D01*
X43373Y47338D01*
X42819Y46784D01*
X42520Y46061D01*
Y45278D01*
X42819Y44554D01*
X43373Y44001D01*
X44097Y43701D01*
X44880D01*
X45603Y44001D01*
X46157Y44554D01*
X46457Y45278D01*
Y45651D01*
X69891Y69085D01*
X70196Y69541D01*
X70303Y70079D01*
Y79330D01*
X70566Y79594D01*
X70866Y80317D01*
Y81100D01*
X70566Y81824D01*
X70013Y82377D01*
X69289Y82677D01*
D02*
G37*
G36*
X41186Y30182D02*
X40402D01*
X39679Y29883D01*
X39125Y29329D01*
X38826Y28605D01*
Y27822D01*
X39125Y27099D01*
X39679Y26545D01*
X40402Y26245D01*
X40776D01*
X48133Y18888D01*
X48588Y18584D01*
X49126Y18477D01*
X73326D01*
X73590Y18213D01*
X74313Y17913D01*
X75096D01*
X75820Y18213D01*
X76373Y18767D01*
X76673Y19490D01*
Y20273D01*
X76373Y20997D01*
X75820Y21551D01*
X75096Y21850D01*
X74313D01*
X73590Y21551D01*
X73326Y21287D01*
X49708D01*
X42763Y28232D01*
Y28605D01*
X42463Y29329D01*
X41909Y29883D01*
X41186Y30182D01*
D02*
G37*
G36*
X8890Y12992D02*
X7646D01*
X6444Y12670D01*
X5367Y12048D01*
X4487Y11169D01*
X3865Y10091D01*
X3543Y8890D01*
Y7646D01*
X3865Y6444D01*
X4487Y5367D01*
X5367Y4487D01*
X6444Y3865D01*
X7646Y3543D01*
X8890D01*
X10091Y3865D01*
X11169Y4487D01*
X12048Y5367D01*
X12670Y6444D01*
X12992Y7646D01*
Y8890D01*
X12670Y10091D01*
X12048Y11169D01*
X11169Y12048D01*
X10091Y12670D01*
X8890Y12992D01*
D02*
G37*
G36*
X122275Y11811D02*
X121032D01*
X119830Y11489D01*
X118753Y10867D01*
X117873Y9988D01*
X117251Y8910D01*
X116929Y7709D01*
Y6465D01*
X117251Y5263D01*
X117873Y4186D01*
X118753Y3306D01*
X119830Y2684D01*
X121032Y2362D01*
X122275D01*
X123477Y2684D01*
X124554Y3306D01*
X125434Y4186D01*
X126056Y5263D01*
X126378Y6465D01*
Y7709D01*
X126056Y8910D01*
X125434Y9988D01*
X124554Y10867D01*
X123477Y11489D01*
X122275Y11811D01*
D02*
G37*
%LPD*%
D10*
X72146Y82972D02*
Y107379D01*
Y82972D02*
X74410Y80709D01*
X70866Y108659D02*
Y108661D01*
Y108659D02*
X72146Y107379D01*
X18602Y70571D02*
X61221Y113189D01*
X69685D01*
X55256Y135473D02*
X58760D01*
X16630Y90745D02*
Y92220D01*
X15021Y88817D02*
Y89137D01*
X16732Y76968D02*
Y86910D01*
X55216Y125394D01*
X58366D01*
X15021Y89137D02*
X16630Y90745D01*
Y92220D02*
X54724Y130315D01*
X58465D01*
X16634Y96850D02*
X55256Y135473D01*
X40794Y28214D02*
X49126Y19882D01*
X74705D01*
X68898Y70079D02*
Y80709D01*
X70472Y138189D02*
X72835Y135827D01*
X87402D01*
X44488Y45669D02*
X68898Y70079D01*
D36*
X77808Y106345D02*
X83465Y100689D01*
X75295Y106496D02*
X75446Y106345D01*
X83465Y100689D02*
X84252D01*
X75446Y106345D02*
X77808D01*
X21913Y116909D02*
X47513Y142510D01*
X9646Y116909D02*
X21913D01*
D37*
X12205Y31102D02*
D03*
Y57087D02*
D03*
D38*
X30709Y170472D02*
D03*
X40551Y175394D02*
D03*
X30709Y152756D02*
D03*
X40551Y147835D02*
D03*
D39*
X9646Y126909D02*
D03*
X104331Y81004D02*
D03*
X84252Y100689D02*
D03*
X123622Y100787D02*
D03*
Y61319D02*
D03*
X84252D02*
D03*
D40*
X9646Y116909D02*
D03*
Y106909D02*
D03*
Y96909D02*
D03*
Y86910D02*
D03*
Y76910D02*
D03*
D41*
X121653Y7087D02*
D03*
X8268Y8268D02*
D03*
X122146Y146752D02*
D03*
X7480Y141732D02*
D03*
D42*
X75295Y106496D02*
D03*
X69685Y113189D02*
D03*
X58760Y135473D02*
D03*
X47513Y142510D02*
D03*
X15021Y88817D02*
D03*
X58366Y125394D02*
D03*
X16732Y76968D02*
D03*
X58465Y130315D02*
D03*
X16634Y96850D02*
D03*
X18602Y70571D02*
D03*
X74705Y19882D02*
D03*
X70866Y108661D02*
D03*
X74410Y80709D02*
D03*
X68898D02*
D03*
X70472Y138189D02*
D03*
X87402Y135827D02*
D03*
X44488Y45669D02*
D03*
X40794Y28214D02*
D03*
M02*
