G04*
G04 #@! TF.GenerationSoftware,Altium Limited,Altium Designer,21.6.4 (81)*
G04*
G04 Layer_Physical_Order=1*
G04 Layer_Color=255*
%FSLAX25Y25*%
%MOIN*%
G70*
G04*
G04 #@! TF.SameCoordinates,35DD912C-F110-465F-AF13-46C66D0AF481*
G04*
G04*
G04 #@! TF.FilePolarity,Positive*
G04*
G01*
G75*
%ADD10C,0.01181*%
%ADD14R,0.05315X0.01575*%
%ADD15R,0.05512X0.06299*%
%ADD16R,0.07480X0.07480*%
%ADD17R,0.05000X0.02008*%
%ADD18R,0.03740X0.01575*%
%ADD19R,0.07874X0.02756*%
%ADD20R,0.03937X0.02362*%
%ADD21R,0.02362X0.03937*%
%ADD36C,0.01575*%
G04:AMPARAMS|DCode=37|XSize=78.74mil|YSize=47.24mil|CornerRadius=11.81mil|HoleSize=0mil|Usage=FLASHONLY|Rotation=0.000|XOffset=0mil|YOffset=0mil|HoleType=Round|Shape=RoundedRectangle|*
%AMROUNDEDRECTD37*
21,1,0.07874,0.02362,0,0,0.0*
21,1,0.05512,0.04724,0,0,0.0*
1,1,0.02362,0.02756,-0.01181*
1,1,0.02362,-0.02756,-0.01181*
1,1,0.02362,-0.02756,0.01181*
1,1,0.02362,0.02756,0.01181*
%
%ADD37ROUNDEDRECTD37*%
%ADD38R,0.06299X0.07874*%
%ADD39R,0.07874X0.06299*%
%ADD40O,0.07874X0.06299*%
%ADD41C,0.03937*%
%ADD42C,0.02362*%
G36*
X126969Y148847D02*
X126469Y148713D01*
X125926Y149653D01*
X125047Y150532D01*
X123969Y151154D01*
X122768Y151476D01*
X121524D01*
X120322Y151154D01*
X119245Y150532D01*
X118365Y149653D01*
X117743Y148575D01*
X117421Y147374D01*
Y146130D01*
X117743Y144928D01*
X118365Y143851D01*
X119245Y142972D01*
X120322Y142350D01*
X121524Y142028D01*
X122768D01*
X123969Y142350D01*
X125047Y142972D01*
X125926Y143851D01*
X126469Y144790D01*
X126969Y144657D01*
Y984D01*
X984D01*
Y184055D01*
X126969D01*
Y148847D01*
D02*
G37*
%LPC*%
G36*
X34646Y175197D02*
X26772D01*
Y165748D01*
X29304D01*
Y157480D01*
X26772D01*
Y148031D01*
X28164D01*
X28280Y147751D01*
X28324Y147531D01*
X28033Y147096D01*
X27926Y146558D01*
Y146457D01*
X26772D01*
Y140945D01*
X27335D01*
Y139066D01*
X25710Y137441D01*
X21122D01*
Y137055D01*
X19173D01*
X18636Y136948D01*
X18180Y136643D01*
X12383Y130847D01*
X4921D01*
Y122973D01*
X14370D01*
Y128860D01*
X19755Y134245D01*
X21122D01*
Y133858D01*
X27697D01*
Y135454D01*
X29734Y137491D01*
X30038Y137947D01*
X30145Y138484D01*
Y140945D01*
X30709D01*
Y144156D01*
X30736Y144291D01*
Y145844D01*
X31007Y146055D01*
X31496Y145835D01*
Y140945D01*
X33703D01*
X33858Y140914D01*
X33858Y140914D01*
X36023D01*
X36135Y140839D01*
X36749Y140717D01*
X36749Y140717D01*
X46697D01*
X47122Y140541D01*
X47905D01*
X48330Y140717D01*
X51772D01*
X51772Y140717D01*
X52386Y140839D01*
X52907Y141188D01*
X54285Y142565D01*
X54633Y143086D01*
X54755Y143701D01*
X54755Y143701D01*
Y162961D01*
X61086D01*
X61417Y162598D01*
Y157087D01*
X61780D01*
Y155512D01*
X61417D01*
Y150000D01*
X61780D01*
Y148425D01*
X61417D01*
Y142913D01*
X61780D01*
Y142004D01*
X61579Y141803D01*
X56634D01*
X56634Y141803D01*
X56019Y141680D01*
X55498Y141332D01*
X52310Y138143D01*
X51961Y137622D01*
X51839Y137008D01*
X51839Y137008D01*
Y93086D01*
X37841Y79088D01*
X37493Y78567D01*
X37371Y77953D01*
X37371Y77953D01*
Y59055D01*
X36220D01*
Y55118D01*
X41732D01*
Y59055D01*
X40582D01*
Y77288D01*
X54580Y91286D01*
X57358Y94064D01*
X60492D01*
Y93858D01*
X64796D01*
X89363Y69292D01*
X89171Y68830D01*
X73993D01*
X73993Y68830D01*
X73379Y68708D01*
X72858Y68360D01*
X67624Y63126D01*
X67276Y62605D01*
X67154Y61991D01*
X67154Y61991D01*
Y42913D01*
X67154Y42913D01*
X67276Y42299D01*
X67624Y41778D01*
X70203Y39199D01*
X70724Y38851D01*
X70950Y38806D01*
X71417Y38661D01*
Y38661D01*
X71417Y38661D01*
X77992D01*
Y42244D01*
X71700D01*
X70366Y43578D01*
Y61326D01*
X70917Y61878D01*
X71417Y61671D01*
Y58661D01*
X77992D01*
Y62244D01*
X71991D01*
X71784Y62744D01*
X74659Y65619D01*
X93572D01*
Y50197D01*
X90453D01*
Y45866D01*
X93572D01*
Y32555D01*
X93331Y32314D01*
X91634D01*
Y32677D01*
X86122D01*
Y28740D01*
X91634D01*
Y29103D01*
X93996D01*
X93996Y29103D01*
X94611Y29225D01*
X95131Y29573D01*
X96312Y30754D01*
X96312Y30754D01*
X96661Y31275D01*
X96783Y31890D01*
X96783Y31890D01*
Y45866D01*
X99902D01*
Y50197D01*
X96783D01*
Y67224D01*
X96661Y67839D01*
X96312Y68360D01*
X95792Y68708D01*
X95177Y68830D01*
X94563Y68708D01*
X94518Y68678D01*
X69614Y93582D01*
X69805Y94044D01*
X72458D01*
X72458Y94044D01*
X73072Y94166D01*
X73593Y94514D01*
X79875Y100796D01*
X79875Y100796D01*
X80224Y101317D01*
X80346Y101932D01*
Y103826D01*
X85643Y109123D01*
X94882D01*
X95037Y109153D01*
X97539D01*
Y111682D01*
X100098D01*
X100098Y111682D01*
X100713Y111804D01*
X101234Y112152D01*
X101923Y112841D01*
X102225Y113293D01*
X102502Y113285D01*
X102725Y113210D01*
Y84941D01*
X99606D01*
Y77067D01*
X109055D01*
Y84941D01*
X105936D01*
Y139764D01*
X105936Y139764D01*
X105814Y140378D01*
X105466Y140899D01*
X94935Y151431D01*
X94414Y151779D01*
X93799Y151901D01*
X93799Y151901D01*
X87303D01*
X87148Y151870D01*
X84646D01*
Y148721D01*
X87148D01*
X87303Y148690D01*
X93134D01*
X102725Y139099D01*
Y134785D01*
X102502Y134710D01*
X102225Y134701D01*
X101923Y135154D01*
X101923Y135154D01*
X90764Y146312D01*
X90243Y146661D01*
X89961Y146717D01*
X89961Y146752D01*
X89629Y146783D01*
X89629Y146783D01*
X89473Y146783D01*
X87303D01*
X87148Y146752D01*
X84646D01*
Y143602D01*
X87148D01*
X87303Y143571D01*
X88964D01*
X99182Y133353D01*
Y114893D01*
X94882D01*
X94727Y114862D01*
X92224D01*
Y112334D01*
X89507D01*
X89316Y112796D01*
X90243Y113723D01*
X90243Y113723D01*
X90441Y114020D01*
X93221Y116800D01*
X94882D01*
X95037Y116831D01*
X97539D01*
Y119980D01*
X95037D01*
X94882Y120011D01*
X92556D01*
X92401Y119980D01*
X92224D01*
Y119945D01*
X91942Y119889D01*
X91421Y119541D01*
X91421Y119541D01*
X89127Y117247D01*
X88893Y117367D01*
X88715Y117542D01*
X88806Y118004D01*
Y134448D01*
X89070Y134712D01*
X89370Y135435D01*
Y136218D01*
X89070Y136942D01*
X88517Y137496D01*
X87793Y137795D01*
X87010D01*
X86286Y137496D01*
X85733Y136942D01*
X85433Y136218D01*
Y135435D01*
X85733Y134712D01*
X85884Y134561D01*
X85844Y134252D01*
X85325Y134063D01*
X73415Y145974D01*
X72959Y146278D01*
X72835Y146303D01*
Y148721D01*
Y151870D01*
X70332D01*
X70177Y151901D01*
X69760D01*
X67769Y153891D01*
X67248Y154239D01*
X66634Y154362D01*
X66634Y154362D01*
X65354D01*
Y155512D01*
X64991D01*
Y157087D01*
X65354D01*
Y162598D01*
X65287D01*
Y163484D01*
X65287Y163484D01*
X65165Y164099D01*
X64816Y164620D01*
X63734Y165702D01*
X63213Y166050D01*
X62598Y166173D01*
X62598Y166173D01*
X54072D01*
X53458Y166050D01*
X52937Y165702D01*
X52937Y165702D01*
X52014Y164780D01*
X51666Y164259D01*
X51544Y163644D01*
X51544Y163644D01*
Y144366D01*
X51107Y143929D01*
X48878D01*
X48629Y144178D01*
X47905Y144478D01*
X47122D01*
X46398Y144178D01*
X46148Y143929D01*
X37279D01*
X37167Y144003D01*
X36552Y144125D01*
X36552Y144125D01*
X35433D01*
Y146457D01*
X31923D01*
X31723Y146897D01*
X31712Y146957D01*
X32007Y147398D01*
X32114Y147936D01*
Y148031D01*
X34646D01*
Y157480D01*
X32114D01*
Y165748D01*
X34646D01*
Y175197D01*
D02*
G37*
G36*
X8102Y146457D02*
X6858D01*
X5657Y146135D01*
X4579Y145513D01*
X3700Y144633D01*
X3078Y143556D01*
X2756Y142354D01*
Y141110D01*
X3078Y139909D01*
X3700Y138831D01*
X4579Y137952D01*
X5657Y137330D01*
X6858Y137008D01*
X8102D01*
X9304Y137330D01*
X10381Y137952D01*
X11261Y138831D01*
X11883Y139909D01*
X12205Y141110D01*
Y142354D01*
X11883Y143556D01*
X11261Y144633D01*
X10381Y145513D01*
X9304Y146135D01*
X8102Y146457D01*
D02*
G37*
G36*
X27697Y132441D02*
X21122D01*
Y128858D01*
X27697D01*
Y132441D01*
D02*
G37*
G36*
Y127441D02*
X21122D01*
Y123858D01*
X27697D01*
Y127441D01*
D02*
G37*
G36*
Y122441D02*
X21122D01*
Y118858D01*
X27697D01*
Y122441D01*
D02*
G37*
G36*
Y117441D02*
X21122D01*
Y113858D01*
X27697D01*
Y117441D01*
D02*
G37*
G36*
X10433Y120880D02*
X8858D01*
X7830Y120745D01*
X6873Y120348D01*
X6050Y119717D01*
X5419Y118895D01*
X5023Y117937D01*
X4887Y116909D01*
X5023Y115882D01*
X5419Y114924D01*
X6050Y114102D01*
X6873Y113470D01*
X7830Y113074D01*
X8858Y112938D01*
X10433D01*
X11461Y113074D01*
X12419Y113470D01*
X13241Y114102D01*
X13872Y114924D01*
X14269Y115882D01*
X14404Y116909D01*
X14269Y117937D01*
X13872Y118895D01*
X13241Y119717D01*
X12419Y120348D01*
X11461Y120745D01*
X10433Y120880D01*
D02*
G37*
G36*
X27697Y112441D02*
X21122D01*
Y108858D01*
X27697D01*
Y112441D01*
D02*
G37*
G36*
Y107441D02*
X21122D01*
Y103858D01*
X27697D01*
Y107441D01*
D02*
G37*
G36*
X10433Y100880D02*
X8858D01*
X7830Y100745D01*
X6873Y100348D01*
X6050Y99717D01*
X5419Y98895D01*
X5023Y97937D01*
X4887Y96909D01*
X5023Y95882D01*
X5419Y94924D01*
X6050Y94102D01*
X6873Y93471D01*
X7830Y93074D01*
X8858Y92939D01*
X10433D01*
X11461Y93074D01*
X12419Y93471D01*
X13241Y94102D01*
X13872Y94924D01*
X14112Y95504D01*
X15196D01*
X15519Y95182D01*
X16242Y94882D01*
X17025D01*
X17749Y95182D01*
X18303Y95735D01*
X18602Y96459D01*
Y97242D01*
X18303Y97966D01*
X17749Y98519D01*
X17025Y98819D01*
X16242D01*
X15519Y98519D01*
X15314Y98314D01*
X14112D01*
X13872Y98895D01*
X13241Y99717D01*
X12419Y100348D01*
X11461Y100745D01*
X10433Y100880D01*
D02*
G37*
G36*
X27697Y97441D02*
X21122D01*
Y93858D01*
X27697D01*
Y97441D01*
D02*
G37*
G36*
Y92441D02*
X21122D01*
Y88858D01*
X27697D01*
Y92441D01*
D02*
G37*
G36*
X67067Y87441D02*
X60492D01*
Y87232D01*
X58661D01*
X58124Y87125D01*
X57668Y86820D01*
X51073Y80226D01*
X50769Y79770D01*
X50662Y79232D01*
Y62323D01*
X48583D01*
Y58740D01*
X55158D01*
Y62323D01*
X53472D01*
Y78650D01*
X59243Y84422D01*
X60492D01*
Y83858D01*
X67067D01*
Y87441D01*
D02*
G37*
G36*
X27697D02*
X21122D01*
Y83858D01*
X27697D01*
Y87441D01*
D02*
G37*
G36*
X10433Y90880D02*
X8858D01*
X7830Y90745D01*
X6873Y90348D01*
X6050Y89717D01*
X5419Y88895D01*
X5023Y87937D01*
X4887Y86910D01*
X5023Y85882D01*
X5419Y84924D01*
X6050Y84101D01*
X6873Y83470D01*
X7830Y83074D01*
X8858Y82938D01*
X10433D01*
X11461Y83074D01*
X12419Y83470D01*
X13241Y84101D01*
X13872Y84924D01*
X14269Y85882D01*
X14341Y86427D01*
X14630Y86849D01*
X14866Y86849D01*
X15413D01*
X16136Y87149D01*
X16690Y87702D01*
X16990Y88426D01*
Y89209D01*
X16690Y89933D01*
X16136Y90486D01*
X15413Y90786D01*
X14630D01*
X13906Y90486D01*
X13396Y89976D01*
X13005Y89898D01*
X12419Y90348D01*
X11461Y90745D01*
X10433Y90880D01*
D02*
G37*
G36*
X69289Y82677D02*
X68506D01*
X67783Y82377D01*
X67567Y82162D01*
X67067Y82272D01*
Y82441D01*
X60492D01*
Y78858D01*
X67067D01*
Y79229D01*
X67567Y79255D01*
X67783Y79040D01*
X68506Y78740D01*
X69289D01*
X70013Y79040D01*
X70566Y79594D01*
X70866Y80317D01*
Y81100D01*
X70566Y81824D01*
X70013Y82377D01*
X69289Y82677D01*
D02*
G37*
G36*
X27697Y82441D02*
X21122D01*
Y78858D01*
X27697D01*
Y82441D01*
D02*
G37*
G36*
X74801Y82677D02*
X74018D01*
X73294Y82377D01*
X72741Y81824D01*
X72441Y81100D01*
Y80727D01*
X68768Y77055D01*
X67067D01*
Y77441D01*
X60492D01*
Y73858D01*
X67067D01*
Y74245D01*
X69350D01*
X69888Y74352D01*
X70344Y74656D01*
X74428Y78740D01*
X74801D01*
X75524Y79040D01*
X76078Y79594D01*
X76378Y80317D01*
Y81100D01*
X76078Y81824D01*
X75524Y82377D01*
X74801Y82677D01*
D02*
G37*
G36*
X10433Y80880D02*
X8858D01*
X7830Y80745D01*
X6873Y80348D01*
X6050Y79717D01*
X5419Y78895D01*
X5023Y77937D01*
X4887Y76910D01*
X5023Y75882D01*
X5419Y74924D01*
X6050Y74102D01*
X6873Y73470D01*
X7830Y73074D01*
X8858Y72939D01*
X10433D01*
X11461Y73074D01*
X12419Y73470D01*
X13241Y74102D01*
X13872Y74924D01*
X14112Y75504D01*
X15412D01*
X15617Y75300D01*
X16341Y75000D01*
X17124D01*
X17847Y75300D01*
X18401Y75853D01*
X18701Y76577D01*
Y77360D01*
X18401Y78084D01*
X17847Y78637D01*
X17124Y78937D01*
X16341D01*
X15617Y78637D01*
X15294Y78314D01*
X14112D01*
X13872Y78895D01*
X13241Y79717D01*
X12419Y80348D01*
X11461Y80745D01*
X10433Y80880D01*
D02*
G37*
G36*
X27697Y77441D02*
X21122D01*
Y73858D01*
X27697D01*
Y77441D01*
D02*
G37*
G36*
X67067Y72441D02*
X60492D01*
Y68858D01*
X67067D01*
Y72441D01*
D02*
G37*
G36*
X18994Y72539D02*
X18211D01*
X17487Y72240D01*
X16933Y71686D01*
X16634Y70962D01*
Y70179D01*
X16933Y69456D01*
X17487Y68902D01*
X18211Y68602D01*
X18994D01*
X19717Y68902D01*
X20021Y69205D01*
X21122D01*
Y68858D01*
X27697D01*
Y72441D01*
X21122D01*
Y72015D01*
X19942D01*
X19717Y72240D01*
X18994Y72539D01*
D02*
G37*
G36*
X41732Y54331D02*
X36220D01*
Y53767D01*
X34646D01*
Y54331D01*
X29134D01*
Y52381D01*
X27371Y50617D01*
X26181D01*
Y50787D01*
X19291D01*
Y47638D01*
Y45079D01*
Y42520D01*
Y39961D01*
X26181D01*
Y42689D01*
X26905D01*
X28910Y40684D01*
Y38976D01*
X27559D01*
Y37026D01*
X25853Y35320D01*
X25548Y34864D01*
X25442Y34327D01*
Y29453D01*
X25548Y28915D01*
X25853Y28459D01*
X26959Y27353D01*
X27415Y27049D01*
X27953Y26941D01*
X29098D01*
X29528Y26772D01*
Y21260D01*
X33465D01*
Y26772D01*
X32901D01*
Y27165D01*
X32794Y27703D01*
X32489Y28159D01*
X31308Y29340D01*
X30853Y29645D01*
X30315Y29751D01*
X28986D01*
X28944Y29815D01*
X29211Y30315D01*
X31084D01*
X36979Y24420D01*
X37435Y24115D01*
X37972Y24008D01*
X48583D01*
Y23740D01*
X55158D01*
Y27323D01*
X48583D01*
Y26818D01*
X42836D01*
X42554Y27318D01*
X42763Y27822D01*
Y28605D01*
X42463Y29329D01*
X41977Y29815D01*
X42038Y30135D01*
X42130Y30315D01*
X42157Y30315D01*
X47244D01*
Y34252D01*
X44033D01*
X43898Y34279D01*
X42905D01*
X40157Y37026D01*
Y38976D01*
X38807D01*
Y39764D01*
X38700Y40301D01*
X38395Y40757D01*
X31505Y47647D01*
X31049Y47951D01*
X30512Y48059D01*
X29493D01*
X29285Y48559D01*
X31121Y50394D01*
X34646D01*
Y50957D01*
X36220D01*
Y50394D01*
X41732D01*
Y54331D01*
D02*
G37*
G36*
X55158Y57323D02*
X48583D01*
Y53740D01*
X55158D01*
Y57323D01*
D02*
G37*
G36*
X77992Y57244D02*
X71417D01*
Y53661D01*
X77992D01*
Y57244D01*
D02*
G37*
G36*
Y52244D02*
X71417D01*
Y48661D01*
X77992D01*
Y52244D01*
D02*
G37*
G36*
X44880Y47638D02*
X44097D01*
X43373Y47338D01*
X42819Y46784D01*
X42520Y46061D01*
Y45278D01*
X42819Y44554D01*
X43373Y44001D01*
X44097Y43701D01*
X44880D01*
X45603Y44001D01*
X45798Y44195D01*
X48583D01*
Y43740D01*
X55158D01*
Y47323D01*
X48583D01*
Y47005D01*
X45936D01*
X45603Y47338D01*
X44880Y47638D01*
D02*
G37*
G36*
X55158Y37323D02*
X48583D01*
Y33740D01*
X55158D01*
Y37323D01*
D02*
G37*
G36*
Y32323D02*
X48583D01*
Y28740D01*
X55158D01*
Y32323D01*
D02*
G37*
G36*
Y52323D02*
X48583D01*
Y48740D01*
X55158D01*
Y48989D01*
X55698D01*
X70345Y34341D01*
X70801Y34037D01*
X71339Y33930D01*
X71417D01*
Y33661D01*
X73300D01*
Y32244D01*
X71417D01*
Y28661D01*
X77992D01*
Y29176D01*
X79035D01*
Y28740D01*
X84547D01*
Y32677D01*
X79035D01*
Y31986D01*
X77992D01*
Y32244D01*
X76110D01*
Y33661D01*
X77992D01*
Y37244D01*
X71417D01*
X71417Y37244D01*
Y37244D01*
X71081Y37579D01*
X57273Y51387D01*
X56817Y51692D01*
X56279Y51799D01*
X55158D01*
Y52323D01*
D02*
G37*
G36*
X77992Y27244D02*
X71417D01*
Y23661D01*
X73300D01*
Y21261D01*
X73036Y20997D01*
X72736Y20273D01*
Y19490D01*
X73036Y18767D01*
X73590Y18213D01*
X74313Y17913D01*
X75096D01*
X75820Y18213D01*
X76373Y18767D01*
X76673Y19490D01*
Y20273D01*
X76373Y20997D01*
X76110Y21261D01*
Y23661D01*
X77992D01*
Y27244D01*
D02*
G37*
G36*
X8890Y12992D02*
X7646D01*
X6444Y12670D01*
X5367Y12048D01*
X4487Y11169D01*
X3865Y10091D01*
X3543Y8890D01*
Y7646D01*
X3865Y6444D01*
X4487Y5367D01*
X5367Y4487D01*
X6444Y3865D01*
X7646Y3543D01*
X8890D01*
X10091Y3865D01*
X11169Y4487D01*
X12048Y5367D01*
X12670Y6444D01*
X12992Y7646D01*
Y8890D01*
X12670Y10091D01*
X12048Y11169D01*
X11169Y12048D01*
X10091Y12670D01*
X8890Y12992D01*
D02*
G37*
G36*
X122275Y11811D02*
X121032D01*
X119830Y11489D01*
X118753Y10867D01*
X117873Y9988D01*
X117251Y8910D01*
X116929Y7709D01*
Y6465D01*
X117251Y5263D01*
X117873Y4186D01*
X118753Y3306D01*
X119830Y2684D01*
X121032Y2362D01*
X122275D01*
X123477Y2684D01*
X124554Y3306D01*
X125434Y4186D01*
X126056Y5263D01*
X126378Y6465D01*
Y7709D01*
X126056Y8910D01*
X125434Y9988D01*
X124554Y10867D01*
X123477Y11489D01*
X122275Y11811D01*
D02*
G37*
%LPD*%
G36*
X83438Y131977D02*
Y118810D01*
X81879Y117251D01*
X80413D01*
Y119980D01*
X75098D01*
Y119810D01*
X71940D01*
X70108Y121643D01*
X69652Y121948D01*
X69114Y122055D01*
X67067D01*
Y122441D01*
X60492D01*
Y118858D01*
X67067D01*
Y119245D01*
X68532D01*
X70365Y117412D01*
X70821Y117107D01*
X70895Y117093D01*
X71059Y116550D01*
X69667Y115157D01*
X69293D01*
X68570Y114858D01*
X68016Y114304D01*
X67716Y113581D01*
Y112797D01*
X68016Y112074D01*
X68570Y111520D01*
X69293Y111221D01*
X70077D01*
X70800Y111520D01*
X71354Y112074D01*
X71653Y112797D01*
Y113171D01*
X72925Y114442D01*
X73958D01*
X74159Y113942D01*
X70848Y110630D01*
X70475D01*
X69751Y110330D01*
X69197Y109776D01*
X68898Y109053D01*
Y108270D01*
X69197Y107546D01*
X69751Y106993D01*
X70475Y106693D01*
X71258D01*
X71981Y106993D01*
X72535Y107546D01*
X72835Y108270D01*
Y108643D01*
X75555Y111364D01*
X75785Y111335D01*
X76165Y110800D01*
X76150Y110728D01*
Y109622D01*
X74160Y107631D01*
X73812Y107111D01*
X73690Y106496D01*
X73812Y105882D01*
X74160Y105361D01*
X74681Y105013D01*
X75295Y104890D01*
X75910Y105013D01*
X76431Y105361D01*
X78891Y107821D01*
X78891Y107821D01*
X79239Y108342D01*
X79362Y108957D01*
X79362Y108957D01*
Y110728D01*
X79265Y111213D01*
X79548Y111713D01*
X80413D01*
Y111882D01*
X82685D01*
X83223Y111989D01*
X83337Y112066D01*
X83656Y111677D01*
X77605Y105626D01*
X77257Y105105D01*
X77135Y104491D01*
X77135Y104491D01*
Y102597D01*
X71793Y97255D01*
X67067D01*
Y97441D01*
X60492D01*
Y97275D01*
X56693D01*
X56693Y97275D01*
X56078Y97153D01*
X55558Y96805D01*
X55558Y96805D01*
X55512Y96760D01*
X55050Y96951D01*
Y105242D01*
X55512Y105434D01*
X60492Y100454D01*
Y98858D01*
X67067D01*
Y102441D01*
X62479D01*
X61524Y103396D01*
X61715Y103858D01*
X67067D01*
Y107441D01*
X60492D01*
Y105081D01*
X60030Y104890D01*
X57027Y107893D01*
Y123295D01*
X57527Y123610D01*
X57975Y123425D01*
X58758D01*
X59481Y123725D01*
X59873Y124117D01*
X60492D01*
Y123858D01*
X67067D01*
Y127441D01*
X60492D01*
Y126927D01*
X59617D01*
X59481Y127062D01*
X58758Y127362D01*
X57975D01*
X57527Y127177D01*
X57027Y127492D01*
Y128315D01*
X57527Y128572D01*
X58073Y128347D01*
X58856D01*
X59580Y128646D01*
X59992Y129059D01*
X60492Y129032D01*
Y128858D01*
X67067D01*
Y132441D01*
X60492D01*
Y131887D01*
X59676D01*
X59580Y131984D01*
X58856Y132283D01*
X58073D01*
X57527Y132057D01*
X57027Y132315D01*
Y133714D01*
X57527Y133921D01*
X57645Y133804D01*
X58368Y133504D01*
X59151D01*
X59875Y133804D01*
X59992Y133921D01*
X60492Y133858D01*
Y133858D01*
X67067D01*
Y137441D01*
X65652D01*
X65461Y137903D01*
X67726Y140168D01*
X68030Y140624D01*
X68114Y141043D01*
X69068D01*
Y139568D01*
X68804Y139304D01*
X68504Y138581D01*
Y137797D01*
X68804Y137074D01*
X69357Y136520D01*
X70081Y136221D01*
X70864D01*
X71588Y136520D01*
X72141Y137074D01*
X72441Y137797D01*
Y138581D01*
X72141Y139304D01*
X71877Y139568D01*
Y141043D01*
X72835D01*
Y141927D01*
X73297Y142118D01*
X83438Y131977D01*
D02*
G37*
%LPC*%
G36*
X67067Y117441D02*
X60492D01*
Y113858D01*
X67067D01*
Y117441D01*
D02*
G37*
G36*
Y112441D02*
X60492D01*
Y108858D01*
X67067D01*
Y112441D01*
D02*
G37*
%LPD*%
G36*
X35702Y39476D02*
X35495Y38976D01*
X34646D01*
Y35039D01*
X38168D01*
X38457Y34689D01*
X38271Y34252D01*
X34646D01*
Y31380D01*
X34184Y31189D01*
X33071Y32302D01*
Y34252D01*
X29446D01*
X29259Y34689D01*
X29548Y35039D01*
X33071D01*
Y38976D01*
X31720D01*
Y41266D01*
X31613Y41804D01*
X31308Y42259D01*
X28819Y44749D01*
X29026Y45249D01*
X29930D01*
X35702Y39476D01*
D02*
G37*
D10*
X77559Y113091D02*
X77756Y113287D01*
X75295Y113091D02*
X77559D01*
X70866Y108661D02*
X75295Y113091D01*
X69685Y113189D02*
X72342Y115847D01*
X82460D01*
X82685Y113287D02*
X87402Y118004D01*
X77756Y113287D02*
X82685D01*
X82460Y115847D02*
X84842Y118228D01*
X71358Y118405D02*
X77756D01*
X69114Y120650D02*
X71358Y118405D01*
X55622Y107311D02*
Y136123D01*
X57531Y138031D02*
X63602D01*
X55622Y136123D02*
X57531Y138031D01*
X58760Y135473D02*
X58917Y135630D01*
X63760D02*
X63779Y135650D01*
X58917Y135630D02*
X63760D01*
X14795Y88591D02*
X15021Y88817D01*
X9646Y86910D02*
X11818D01*
X13500Y88591D02*
X14795D01*
X11818Y86910D02*
X13500Y88591D01*
X58366Y125394D02*
X58494Y125522D01*
X63652D02*
X63779Y125650D01*
X58494Y125522D02*
X63652D01*
X55622Y107311D02*
X62283Y100650D01*
X16673Y76910D02*
X16732Y76968D01*
X9646Y76910D02*
X16673D01*
X63612Y130482D02*
X63779Y130650D01*
X58632Y130482D02*
X63612D01*
X58465Y130315D02*
X58632Y130482D01*
X16575Y96909D02*
X16634Y96850D01*
X9646Y96909D02*
X16575D01*
X63779Y120650D02*
X69114D01*
X25905Y135650D02*
X28740Y138484D01*
X10433Y126909D02*
X19173Y135650D01*
X28740Y138484D02*
Y143701D01*
X24409Y135650D02*
X25905D01*
X19173D02*
X24409D01*
X9646Y126909D02*
X10433D01*
X24370Y70610D02*
X24409Y70650D01*
X18642Y70610D02*
X24370D01*
X18602Y70571D02*
X18642Y70610D01*
X44557Y45600D02*
X51801D01*
X44488Y45669D02*
X44557Y45600D01*
X51801D02*
X51870Y45531D01*
X50020Y50394D02*
X52008D01*
X51870Y50532D02*
X52008Y50394D01*
X56279D01*
X37972Y25413D02*
X51752D01*
X51870Y25532D01*
X72835Y25335D02*
X74410D01*
X74705Y19882D02*
Y25039D01*
X74410Y25335D02*
X74705Y25039D01*
X74498Y30522D02*
X74774D01*
X74705Y30709D02*
X74833Y30581D01*
X74705Y30709D02*
Y35453D01*
X74774Y30522D02*
X74833Y30581D01*
X74705Y30453D02*
X74774Y30522D01*
X81545Y30581D02*
X81604Y30522D01*
X74833Y30581D02*
X81545D01*
X52067Y79232D02*
X58661Y85827D01*
X52067Y60728D02*
Y79232D01*
X51870Y60532D02*
X52067Y60728D01*
X63602Y138031D02*
X66732Y141162D01*
X70866Y108661D02*
X71186D01*
X69350Y75650D02*
X74410Y80709D01*
X63779Y75650D02*
X69350D01*
X63779Y80650D02*
X63809Y80679D01*
X68868D01*
X68898Y80709D01*
X62283Y100650D02*
X63779D01*
X66732Y141162D02*
Y146338D01*
X67933Y147539D01*
X70472Y138189D02*
Y142421D01*
X70177Y142618D02*
X70276D01*
X70472Y142421D01*
X84842Y118228D02*
Y132559D01*
X87402Y118004D02*
Y135827D01*
X72421Y144980D02*
X84842Y132559D01*
X70374Y144980D02*
X72421D01*
X70177Y145177D02*
X70374Y144980D01*
X67933Y147539D02*
X69980D01*
X70177Y147736D01*
X28740Y143701D02*
X29331Y144291D01*
Y146558D01*
X30709Y147936D01*
Y152756D01*
Y170472D01*
X58661Y85827D02*
X63602D01*
X63779Y85650D01*
X37402Y31606D02*
X40794Y28214D01*
X37402Y31606D02*
Y32283D01*
X27953Y28346D02*
X30315D01*
X31496Y27165D01*
Y24016D02*
Y27165D01*
X31031Y24481D02*
X31496Y24016D01*
X26846Y29453D02*
X27953Y28346D01*
X50000Y50413D02*
X50020Y50394D01*
X56279D02*
X71339Y35335D01*
X72835D01*
X81604Y30522D02*
X81791Y30709D01*
X72835Y30335D02*
X73022Y30522D01*
X29528Y37008D02*
X30315D01*
X26846Y34327D02*
X29528Y37008D01*
X26846Y29453D02*
Y34327D01*
X31102Y32283D02*
X37972Y25413D01*
X30315Y37008D02*
Y41266D01*
X27487Y44094D02*
X30315Y41266D01*
X22736Y44094D02*
X27487D01*
X38189Y37008D02*
X42323Y32874D01*
X43898D01*
X37402Y37008D02*
X38189D01*
X43898Y32874D02*
X44488Y32283D01*
X37402Y37008D02*
Y39764D01*
X30512Y46654D02*
X37402Y39764D01*
X22736Y46654D02*
X30512D01*
X31890Y52362D02*
X38976D01*
X31890Y52362D02*
X31890Y52362D01*
X27953Y49213D02*
X31102Y52362D01*
X22736Y49213D02*
X27953D01*
X31102Y52362D02*
X31890D01*
D14*
X22736Y49213D02*
D03*
Y46654D02*
D03*
Y44094D02*
D03*
Y41535D02*
D03*
Y38976D02*
D03*
D15*
X21850Y56693D02*
D03*
Y31496D02*
D03*
D16*
X12205Y48819D02*
D03*
Y39370D02*
D03*
D17*
X24409Y135650D02*
D03*
Y130650D02*
D03*
Y125650D02*
D03*
Y120650D02*
D03*
Y115650D02*
D03*
Y110650D02*
D03*
Y105650D02*
D03*
Y100650D02*
D03*
Y95650D02*
D03*
Y90650D02*
D03*
Y85650D02*
D03*
Y80650D02*
D03*
Y75650D02*
D03*
Y70650D02*
D03*
X63779Y135650D02*
D03*
Y130650D02*
D03*
Y125650D02*
D03*
Y120650D02*
D03*
Y115650D02*
D03*
Y110650D02*
D03*
Y105650D02*
D03*
Y100650D02*
D03*
Y95650D02*
D03*
Y90650D02*
D03*
Y85650D02*
D03*
Y80650D02*
D03*
Y75650D02*
D03*
Y70650D02*
D03*
X51870Y50532D02*
D03*
X74705Y45453D02*
D03*
Y55453D02*
D03*
Y60453D02*
D03*
Y25453D02*
D03*
Y30453D02*
D03*
Y35453D02*
D03*
Y40453D02*
D03*
X51870Y35531D02*
D03*
Y40532D02*
D03*
Y45531D02*
D03*
Y60532D02*
D03*
Y55532D02*
D03*
Y25532D02*
D03*
Y30531D02*
D03*
X74705Y50453D02*
D03*
D18*
X87303Y142618D02*
D03*
Y145177D02*
D03*
Y147736D02*
D03*
Y150295D02*
D03*
X70177Y142618D02*
D03*
Y145177D02*
D03*
Y147736D02*
D03*
Y150295D02*
D03*
X94882Y110728D02*
D03*
Y113287D02*
D03*
Y115847D02*
D03*
Y118405D02*
D03*
X77756Y110728D02*
D03*
Y113287D02*
D03*
Y115847D02*
D03*
Y118405D02*
D03*
D19*
X83366Y48031D02*
D03*
X95177D02*
D03*
D20*
X38976Y52362D02*
D03*
Y57087D02*
D03*
X37402Y37008D02*
D03*
Y32283D02*
D03*
X30315Y37008D02*
D03*
Y32283D02*
D03*
X88878Y35433D02*
D03*
Y30709D02*
D03*
X31890Y57087D02*
D03*
Y52362D02*
D03*
X44488Y37008D02*
D03*
Y32283D02*
D03*
X81791Y35433D02*
D03*
Y30709D02*
D03*
D21*
X28740Y143701D02*
D03*
X33465D02*
D03*
X58661Y145669D02*
D03*
X63386D02*
D03*
X58661Y159843D02*
D03*
X63386D02*
D03*
X58661Y152756D02*
D03*
X63386D02*
D03*
X26772Y24016D02*
D03*
X31496D02*
D03*
D36*
X75295Y106496D02*
X77756Y108957D01*
Y110728D01*
X93799Y150295D02*
X104331Y139764D01*
Y81004D02*
Y139764D01*
X100787Y113976D02*
Y134018D01*
X89629Y145177D02*
X100787Y134018D01*
X84978Y110728D02*
X89108Y114859D01*
X84978Y110728D02*
X94882D01*
X78740Y104491D02*
X84978Y110728D01*
X100098Y113287D02*
X100787Y113976D01*
X94882Y113287D02*
X100098D01*
X89108Y114859D02*
Y114957D01*
X92556Y118405D02*
X94882D01*
X89108Y114957D02*
X92556Y118405D01*
X65276Y95650D02*
X72458D01*
X78740Y101932D01*
Y104491D01*
X53445Y92421D02*
Y137008D01*
X56634Y140197D02*
X62244D01*
X53445Y137008D02*
X56634Y140197D01*
X36749Y142323D02*
X51772D01*
X38976Y77953D02*
X53445Y92421D01*
X63386Y141339D02*
Y143307D01*
X53445Y92421D02*
X56693Y95669D01*
X63779Y143307D02*
Y145669D01*
X62244Y140197D02*
X63386Y141339D01*
X66634Y152756D02*
X69095Y150295D01*
X63386Y152756D02*
X66634D01*
X69095Y150295D02*
X70177D01*
X63386Y152756D02*
Y159843D01*
Y145669D02*
Y152756D01*
X63386Y145669D02*
X63386Y145669D01*
X63681Y159941D02*
Y163484D01*
X62598Y164567D02*
X63681Y163484D01*
X53150Y143701D02*
Y163644D01*
X54072Y164567D01*
X62598D01*
X33858Y142520D02*
X36552D01*
X51772Y142323D02*
X53150Y143701D01*
X33465Y142913D02*
Y143701D01*
Y142913D02*
X33858Y142520D01*
X36552D02*
X36749Y142323D01*
X63779Y95650D02*
X65276D01*
X87303Y145177D02*
X89629D01*
X87303Y150295D02*
X93799D01*
X95177Y31890D02*
Y67224D01*
X93996Y30709D02*
X95177Y31890D01*
X73993Y67224D02*
X93701D01*
X71339Y40335D02*
X72835D01*
X68760Y42913D02*
X71339Y40335D01*
X68760Y42913D02*
Y61991D01*
X73993Y67224D01*
X65276Y95650D02*
X93701Y67224D01*
X63760Y95669D02*
X63779Y95650D01*
X56693Y95669D02*
X63760D01*
X38976Y57087D02*
Y77953D01*
X63779Y143307D02*
X63779Y143307D01*
X88878Y30709D02*
X93996D01*
D37*
X12205Y31102D02*
D03*
Y57087D02*
D03*
D38*
X30709Y170472D02*
D03*
X40551Y175394D02*
D03*
X30709Y152756D02*
D03*
X40551Y147835D02*
D03*
D39*
X9646Y126909D02*
D03*
X104331Y81004D02*
D03*
X84252Y100689D02*
D03*
X123622Y100787D02*
D03*
Y61319D02*
D03*
X84252D02*
D03*
D40*
X9646Y116909D02*
D03*
Y106909D02*
D03*
Y96909D02*
D03*
Y86910D02*
D03*
Y76910D02*
D03*
D41*
X121653Y7087D02*
D03*
X8268Y8268D02*
D03*
X122146Y146752D02*
D03*
X7480Y141732D02*
D03*
D42*
X75295Y106496D02*
D03*
X69685Y113189D02*
D03*
X58760Y135473D02*
D03*
X47513Y142510D02*
D03*
X15021Y88817D02*
D03*
X58366Y125394D02*
D03*
X16732Y76968D02*
D03*
X58465Y130315D02*
D03*
X16634Y96850D02*
D03*
X18602Y70571D02*
D03*
X74705Y19882D02*
D03*
X70866Y108661D02*
D03*
X74410Y80709D02*
D03*
X68898D02*
D03*
X70472Y138189D02*
D03*
X87402Y135827D02*
D03*
X44488Y45669D02*
D03*
X40794Y28214D02*
D03*
M02*
