G04*
G04 #@! TF.GenerationSoftware,Altium Limited,Altium Designer,21.6.4 (81)*
G04*
G04 Layer_Color=8421504*
%FSLAX25Y25*%
%MOIN*%
G70*
G04*
G04 #@! TF.SameCoordinates,35DD912C-F110-465F-AF13-46C66D0AF481*
G04*
G04*
G04 #@! TF.FilePolarity,Positive*
G04*
G01*
G75*
%ADD14R,0.05315X0.01575*%
%ADD15R,0.05512X0.06299*%
%ADD16R,0.07480X0.07480*%
%ADD17R,0.05000X0.02008*%
%ADD18R,0.03740X0.01575*%
%ADD19R,0.07874X0.02756*%
%ADD20R,0.03937X0.02362*%
%ADD21R,0.02362X0.03937*%
D14*
X22736Y49213D02*
D03*
Y46654D02*
D03*
Y44094D02*
D03*
Y41535D02*
D03*
Y38976D02*
D03*
D15*
X21850Y56693D02*
D03*
Y31496D02*
D03*
D16*
X12205Y48819D02*
D03*
Y39370D02*
D03*
D17*
X24409Y135650D02*
D03*
Y130650D02*
D03*
Y125650D02*
D03*
Y120650D02*
D03*
Y115650D02*
D03*
Y110650D02*
D03*
Y105650D02*
D03*
Y100650D02*
D03*
Y95650D02*
D03*
Y90650D02*
D03*
Y85650D02*
D03*
Y80650D02*
D03*
Y75650D02*
D03*
Y70650D02*
D03*
X63779Y135650D02*
D03*
Y130650D02*
D03*
Y125650D02*
D03*
Y120650D02*
D03*
Y115650D02*
D03*
Y110650D02*
D03*
Y105650D02*
D03*
Y100650D02*
D03*
Y95650D02*
D03*
Y90650D02*
D03*
Y85650D02*
D03*
Y80650D02*
D03*
Y75650D02*
D03*
Y70650D02*
D03*
X51870Y50532D02*
D03*
X74705Y45453D02*
D03*
Y55453D02*
D03*
Y60453D02*
D03*
Y25453D02*
D03*
Y30453D02*
D03*
Y35453D02*
D03*
Y40453D02*
D03*
X51870Y35531D02*
D03*
Y40532D02*
D03*
Y45531D02*
D03*
Y60532D02*
D03*
Y55532D02*
D03*
Y25532D02*
D03*
Y30531D02*
D03*
X74705Y50453D02*
D03*
D18*
X87303Y142618D02*
D03*
Y145177D02*
D03*
Y147736D02*
D03*
Y150295D02*
D03*
X70177Y142618D02*
D03*
Y145177D02*
D03*
Y147736D02*
D03*
Y150295D02*
D03*
X94882Y110728D02*
D03*
Y113287D02*
D03*
Y115847D02*
D03*
Y118405D02*
D03*
X77756Y110728D02*
D03*
Y113287D02*
D03*
Y115847D02*
D03*
Y118405D02*
D03*
D19*
X83366Y48031D02*
D03*
X95177D02*
D03*
D20*
X38976Y52362D02*
D03*
Y57087D02*
D03*
X37402Y37008D02*
D03*
Y32283D02*
D03*
X30315Y37008D02*
D03*
Y32283D02*
D03*
X88878Y35433D02*
D03*
Y30709D02*
D03*
X31890Y57087D02*
D03*
Y52362D02*
D03*
X44488Y37008D02*
D03*
Y32283D02*
D03*
X81791Y35433D02*
D03*
Y30709D02*
D03*
D21*
X28740Y143701D02*
D03*
X33465D02*
D03*
X58661Y145669D02*
D03*
X63386D02*
D03*
X58661Y159843D02*
D03*
X63386D02*
D03*
X58661Y152756D02*
D03*
X63386D02*
D03*
X26772Y24016D02*
D03*
X31496D02*
D03*
M02*
